<svg id="visual" viewBox="0 0 960 540" width="960" height="540" xmlns="http://www.w3.org/2000/svg" xmlns:xlink="http://www.w3.org/1999/xlink" version="1.1"><path d="M0 72L32 71.7C64 71.3 128 70.7 192 72.7C256 74.7 320 79.3 384 77.7C448 76 512 68 576 66.2C640 64.3 704 68.7 768 71.2C832 73.7 896 74.3 928 74.7L960 75L960 0L928 0C896 0 832 0 768 0C704 0 640 0 576 0C512 0 448 0 384 0C320 0 256 0 192 0C128 0 64 0 32 0L0 0Z" fill="#def6e9"></path><path d="M0 35L32 35.3C64 35.7 128 36.3 192 39.7C256 43 320 49 384 52.8C448 56.7 512 58.3 576 59.3C640 60.3 704 60.7 768 59.7C832 58.7 896 56.3 928 55.2L960 54L960 0L928 0C896 0 832 0 768 0C704 0 640 0 576 0C512 0 448 0 384 0C320 0 256 0 192 0C128 0 64 0 32 0L0 0Z" fill="#beebe3"></path><path d="M0 16L32 19.5C64 23 128 30 192 33.5C256 37 320 37 384 34.8C448 32.7 512 28.3 576 28.2C640 28 704 32 768 32.2C832 32.3 896 28.7 928 26.8L960 25L960 0L928 0C896 0 832 0 768 0C704 0 640 0 576 0C512 0 448 0 384 0C320 0 256 0 192 0C128 0 64 0 32 0L0 0Z" fill="#a2ded4"></path></svg>
